<svg xmlns="http://www.w3.org/2000/svg" width="32" height="25" viewBox="0 0 42 35">
  <defs>
    <style>
      .search-icon{
        fill: #FFF;
        fill-rule: evenodd;
      }
    </style>
  </defs>
  <path class="search-icon" d="M9.987,15.138A9.145,9.145,0,0,1,19.143,6h0A9.145,9.145,0,0,1,28.3,15.138h0a9.146,9.146,0,0,1-9.155,9.136h0a9.147,9.147,0,0,1-9.156-9.136h0Zm1.225,0a7.932,7.932,0,0,0,7.931,7.914h0a7.932,7.932,0,0,0,7.93-7.914h0a7.935,7.935,0,0,0-7.93-7.915h0a7.935,7.935,0,0,0-7.931,7.915h0Zm13.614,6.537,0.867-.865,7.323,7.308-0.867.865-7.323-7.308h0Z"/>
</svg>
